<?xml version="1.0" encoding="utf-8"?>
<!-- Generator: Adobe Illustrator 25.4.1, SVG Export Plug-In . SVG Version: 6.00 Build 0)  -->
<svg version="1.1" id="Layer_1" xmlns="http://www.w3.org/2000/svg" xmlns:xlink="http://www.w3.org/1999/xlink" x="0px" y="0px"
	 viewBox="0 0 64 64" style="enable-background:new 0 0 64 64;" xml:space="preserve">
<path d="M48.668457,11.234375c-1.5095825-0.4537964-4.8491821-0.6405029-7.6339111-0.7176514
	c-0.4953003-0.8237915-1.609436-1.3741455-2.9759521-1.3741455c-1.8564453,0-3.2563477,1.0107422-3.2563477,2.3505859
	c0,0.0087891,0.0032349,0.0167847,0.0033569,0.0255737c-4.2137451,0.7318726-11.7193604,2.3098755-14.0043335,4.5847778
	c-4.206543,4.2060547-6.5112305,9.1855469-6.8491211,14.7988281l-0.3884888,6.4475098
	c-0.9353027,1.1573486-5.0271606,6.1956787-6.7052612,7.8737793c-1.8276367,1.8271484-4.2163086,4.3115234-4.5273438,4.6376953
	l-0.0107422,0.0117188c-0.0161133,0.0175781-0.020752,0.0402222-0.0354004,0.0585938
	c-0.039917,0.0496216-0.0681152,0.1052246-0.0982666,0.1626587c-0.0315552,0.0609131-0.0620117,0.1194458-0.0799561,0.1842041
	c-0.0064087,0.0223999-0.0221558,0.0391846-0.0270996,0.0623169c-0.0541992,0.2529297-0.2875977,1.5625,0.4082031,2.4433594
	c0.2490234,0.3154297,0.7104492,0.6953125,1.5039062,0.7148438c0.0146484,0,0.0297852,0,0.0463867,0
	c0.4031372,0,1.487854-0.1333618,8.5044556-3.602356c2.213501,1.130127,10.4810181,4.8189087,14.1723022,4.9363403
	c0.5825195,0.0166016,1.1494141,0.0244141,1.7026367,0.0244141c5.75,0,9.9301758-0.8984375,12.4389648-2.6767578
	c2.1473999-1.5199585,5.4876709-5.7355347,8.0092773-9.1467285c3.4960327-0.3498535,5.059082-0.6278687,5.8359375-1.0378418
	c0.5244141-0.2783203,1.5458984-0.5654297,2.5341797-0.8417969C59.6855469,40.4677734,62,39.8183594,62,38.1376953
	c0-0.1328125-0.215332-13.6298828-3.6616211-18.8056641C55.1625977,14.5615234,51.2617188,12.0214844,48.668457,11.234375z
	 M38.0585938,11.1425781c0.6455078,0,1.0712891,0.2138672,1.2177734,0.3505859
	c-0.1044922,0.0975342-0.3566895,0.2315674-0.7236938,0.302002c-0.0383301,0.0050049-0.0748901,0.0084839-0.1124268,0.0178833
	c-0.1182861,0.0170288-0.2423096,0.0307007-0.3816528,0.0307007c-0.6455078,0-1.0717773-0.2138672-1.2182617-0.3505859
	C36.9868164,11.3564453,37.4130859,11.1425781,38.0585938,11.1425781z M15.9482422,31.0234375
	c0.3081055-5.1113281,2.4165039-9.6552734,6.265625-13.5039062c1.6973267-1.6901245,8.4091187-3.2890625,13.8088379-4.1782837
	c0.5514526,0.3122559,1.2476807,0.5025024,2.0358887,0.5025024c0.1298828,0,0.2515869-0.0161133,0.376709-0.0257568
	c4.2825317,2.8899536,7.0757446,5.7963867,7.310791,7.6282959l0.0449219,0.3457031
	c0.5214844,4.0185547,1.3945312,10.7441406-0.0102539,15.3388672c-0.4526978,1.4934082-1.0695801,2.9480591-1.8214111,4.3376465
	c-1.8018188,0.1708984-3.7186279,0.3747559-4.9954834,0.614502c-2.9487305,0.5644531-7.5898438-1.2548828-11.3183594-2.7236328
	c-0.5454102-0.2148438-1.0708008-0.421875-1.5668945-0.6113281C22.8422852,37.5,17.7495117,36.9755859,15.6000977,36.8027344
	L15.9482422,31.0234375z M4.0072021,51.2849731c0.8604736-0.2741089,1.6906738-0.5183105,2.4724121-0.7277222
	c-1.9500122,0.8638306-2.3988647,0.9547729-2.4190674,0.9915771C4.0316772,51.5036621,4.0153809,51.4020996,4.0072021,51.2849731z
	 M39.7006836,50.5488281c-2.355957,1.6689453-6.824707,2.4560547-12.925293,2.2851562
	c-3.074707-0.0976562-11.2402344-3.6132812-13.4794922-4.796875c-0.0908203-0.0513306-0.2175293-0.095459-0.3405151-0.1408081
	c-0.0140381-0.0068359-0.0249023-0.0180664-0.0393677-0.024231c-0.0110474-0.0047607-0.0232544-0.0018921-0.0344238-0.0062256
	c-0.0247803-0.008606-0.0393066-0.0183716-0.0651855-0.0269775c-1.3797607-0.4190063-3.9544067,0.0333252-6.3817139,0.6605835
	c0.6126709-0.6265869,1.2526245-1.2767944,1.8377686-1.8617554c1.7003174-1.7003174,5.5692139-6.4511108,6.7213135-7.875
	c1.666748,0.1236572,7.1483154,0.6101074,10.3675537,1.8515625c0.4926758,0.1894531,1.012207,0.3935547,1.5512695,0.6054688
	C30.3222656,42.5625,34.4472656,44.1875,37.7709961,44.1875c0.5463867,0,1.0717773-0.0439453,1.5678711-0.140625
	c1.3178711-0.2470703,3.4399414-0.4609375,5.3291016-0.6357422c0.4970703-0.039917,1.0048218-0.0828857,1.5110474-0.1262817
	C43.329834,47.0344238,41.0578003,49.5878906,39.7006836,50.5488281z M56.6958008,39.2285156
	c-1.1401367,0.3193359-2.2172852,0.6210938-2.9301758,1c-0.7460938,0.3945312-4.2270508,0.7324219-5.5405273,0.8603516
	c-0.6245117,0.0622559-1.2697144,0.121582-1.9191284,0.1782837c0.5509644-1.1544189,1.0209351-2.3423462,1.3878784-3.5542603
	c1.5307617-5.0048828,0.6230469-11.9990234,0.0805664-16.1787109l-0.0449219-0.3427734
	c-0.3756104-2.932373-4.1248169-6.1519165-7.0712891-8.263855c0.1322021-0.1268921,0.2468872-0.2628784,0.3410645-0.40979
	c3.4960938,0.0974121,6.0683594,0.3233643,7.0900879,0.6316528c2.2597656,0.6855469,5.7016602,2.9609375,8.5839844,7.2910156
	c2.6918945,4.0419922,3.3076172,14.8300781,3.3261719,17.5712891
	C59.5776367,38.4208984,57.7158203,38.9423828,56.6958008,39.2285156z"/>
<path d="M33.1704102,35.8037109c0.1323242,0,0.2651367-0.0263672,0.3911133-0.0800781
	c0.3505859-0.1484375,0.5859375-0.4833984,0.6074219-0.8632812l0.2021484-3.5830078l3.0649414-1.8632812
	c0.3251953-0.1982422,0.5102539-0.5634766,0.4765625-0.9423828c-0.0332031-0.3789062-0.2792969-0.7060547-0.6337891-0.8447266
	l-3.3442383-1.2988281l-0.8256836-3.4912109c-0.0874023-0.3701172-0.3779297-0.6582031-0.7490234-0.7441406
	c-0.3701172-0.0839844-0.7578125,0.046875-0.9985352,0.3417969l-2.269043,2.7783203l-3.5756836-0.2929688
	c-0.3803711-0.0244141-0.7431641,0.15625-0.9389648,0.4824219c-0.1958008,0.3271484-0.1894531,0.7363281,0.0166016,1.0556641
	l1.9418945,3.0166016l-1.3837891,3.3095703c-0.1469727,0.3515625-0.0820312,0.7548828,0.1679688,1.0419922
	s0.6416016,0.4082031,1.0092773,0.3105469l3.46875-0.9150391l2.7197266,2.3398438
	C32.703125,35.7207031,32.9355469,35.8037109,33.1704102,35.8037109z M32.2861328,32.7236328l-1.5820312-1.3603516
	c-0.1835938-0.1582031-0.4160156-0.2421875-0.6523438-0.2421875c-0.0849609,0-0.1708984,0.0107422-0.2548828,0.0332031
	l-2.0180664,0.5322266l0.8051758-1.9257812c0.1274414-0.3037109,0.0966797-0.6503906-0.081543-0.9267578l-1.1298828-1.7548828
	L29.453125,27.25c0.3286133,0.0195312,0.6484375-0.1103516,0.855957-0.3642578l1.3198242-1.6162109l0.4804688,2.03125
	c0.0756836,0.3203125,0.3041992,0.5820312,0.6108398,0.7021484l1.9453125,0.7548828l-1.7827148,1.0839844
	c-0.28125,0.1708984-0.4604492,0.4697266-0.4790039,0.7978516L32.2861328,32.7236328z"/>
<path d="M40.203125,28.9355469c0-5.2382812-4.2617188-9.5-9.5-9.5s-9.5,4.2617188-9.5,9.5s4.2617188,9.5,9.5,9.5
	S40.203125,34.1738281,40.203125,28.9355469z M23.203125,28.9355469c0-4.1357422,3.3642578-7.5,7.5-7.5s7.5,3.3642578,7.5,7.5
	s-3.3642578,7.5-7.5,7.5S23.203125,33.0712891,23.203125,28.9355469z"/>
<path d="M52.6660156,33.3173828c-1.6499023,0-2.9921875,1.3427734-2.9921875,2.9921875s1.3422852,2.9921875,2.9921875,2.9921875
	s2.9921875-1.3427734,2.9921875-2.9921875S54.315918,33.3173828,52.6660156,33.3173828z M52.6660156,37.3017578
	c-0.546875,0-0.9921875-0.4453125-0.9921875-0.9921875s0.4453125-0.9921875,0.9921875-0.9921875
	s0.9921875,0.4453125,0.9921875,0.9921875S53.2128906,37.3017578,52.6660156,37.3017578z"/>
</svg>
