<?xml version="1.0" encoding="UTF-8" standalone="no"?> <svg xmlns="http://www.w3.org/2000/svg" viewBox="0 0 520 520"><title>Hooded_top</title><g id="Hooded_top"><path d="M433.5,449.12l2.1-.5a3.46,3.46,0,0,0,2.62-3.84l-35.07-250C393,110.63,363.89,92,351,87.83l2.58-3.24s.06-.1.1-.15a2.92,2.92,0,0,0,.29-.48l.11-.24a3.5,3.5,0,0,0,.17-.55c0-.07,0-.14,0-.21a3.29,3.29,0,0,0,0-.77s0-.09,0-.14a3.67,3.67,0,0,0-.14-.64s0-.07,0-.1l-10.32-29.8C337,27.6,268.67,30.25,260,30.68c-.89,0-4.88-.21-10.74-.24h0a3.45,3.45,0,0,0,0,6.9c6.36,0,10.56.24,10.6.24a2.16,2.16,0,0,0,.36,0c27-1.38,70.76,1.49,76.6,14.82a70.77,70.77,0,0,1-10.32,16.54c-28.86-8.73-63.68-8.39-66.4-8.35-30-1.49-58.48,6-66.51,8.36a70.4,70.4,0,0,1-10.33-16.56c2-4.48,8.59-8.2,19.24-10.81a3.45,3.45,0,1,0-1.64-6.7c-14.18,3.48-22.46,9.07-24.61,16.63l-10.32,29.8s0,.07,0,.1a3.67,3.67,0,0,0-.14.64s0,.09,0,.14a3.29,3.29,0,0,0,0,.77c0,.07,0,.14,0,.21a3.5,3.5,0,0,0,.17.55,2.56,2.56,0,0,0,.11.24,2.92,2.92,0,0,0,.29.48s.06.11.1.15L169,87.83C156.11,92,127,110.62,116.86,194.66L81.78,444.78a3.46,3.46,0,0,0,2.62,3.84l2.1.5-4.35,26.53a3.45,3.45,0,0,0,2.67,3.93L114.27,486a3.44,3.44,0,0,0,1.44.82,3.48,3.48,0,0,0,.9.12,3.39,3.39,0,0,0,1.1-.19l13,2.82a3.71,3.71,0,0,0,.73.08,3.45,3.45,0,0,0,3.26-2.32l8.52-24.65,3.86.92a3.72,3.72,0,0,0,.81.09,3.43,3.43,0,0,0,3-1.74l3.61-6.31h211l3.61,6.31a3.44,3.44,0,0,0,3,1.74,3.7,3.7,0,0,0,.8-.09l3.86-.92,8.52,24.65a3.45,3.45,0,0,0,3.26,2.32,3.71,3.71,0,0,0,.73-.08l13-2.82a3.39,3.39,0,0,0,1.1.19,3.48,3.48,0,0,0,.9-.12,3.44,3.44,0,0,0,1.44-.82l29.45-6.39a3.45,3.45,0,0,0,2.67-3.93ZM290.71,117.84c0-2.63-.11-5.28-.24-8a3.45,3.45,0,1,0-6.89.33c.16,3.37.23,6.67.25,9.92-5.2,1.58-9.62,2.64-12.83,3.3,5.42-12.13,17.38-23.14,27.7-28.44l1.33-.66a3.42,3.42,0,0,0,1.12-.54c1.8-.85,3.62-1.66,5.38-2.43,6.09-2.68,12.39-5.44,18.26-10.73a74.55,74.55,0,0,0,15.15-19.15l7,20.15C329.18,101,307.39,111.91,290.71,117.84Zm-27.5,6.57h-6.42c-5.22-15.13-19.87-29.17-32.36-35.58l-.63-.31-1.65-5.9c9.46,1,29.43,3.17,37.87,3.27,7.59,0,28.17-2.22,37.83-3.28l-1.65,5.9-.64.32C283.08,95.24,268.43,109.28,263.21,124.41Zm-30.07-17.82a3.45,3.45,0,0,0-3.61,3.28c-.13,2.69-.2,5.34-.24,8-16.68-5.93-38.47-16.8-56.2-36.22l7-20.15a76.06,76.06,0,0,0,9.72,13.67v0l0,0a74.44,74.44,0,0,0,5.39,5.43c5.86,5.28,12.16,8,18.25,10.72,1.82.79,3.69,1.62,5.56,2.52a3.6,3.6,0,0,0,.77.36l1.49.74c10.33,5.31,22.29,16.32,27.71,28.45-3.21-.67-7.63-1.72-12.83-3.31,0-3.24.09-6.54.25-9.91A3.45,3.45,0,0,0,233.14,106.59Zm26.69-39.11h.23c.35,0,33.29-.49,61.06,7.09-.32.31-.63.62-1,.92-4.84,4.36-10.14,6.77-15.74,9.24l1.45-5.2a3.45,3.45,0,0,0-3.71-4.36c-.33,0-32.7,3.75-42.12,3.81-10.6-.12-41.87-3.77-42.19-3.81a3.45,3.45,0,0,0-3.72,4.36l1.45,5.2c-5.6-2.47-10.9-4.88-15.72-9.22-.32-.29-.61-.59-.92-.88C209.63,71.81,234.49,66.22,259.83,67.48ZM93.23,450.72l10.5,2.51L98,475.37l-8.47-1.84Zm26.68,6.37-5.68,21.82-9.52-2.07,5.74-22Zm9.26,25.06-8.2-1.78,5.65-21.68,9.84,2.35Zm17-25.89-36.95-8.82-.4-.14a2.87,2.87,0,0,0-.5-.07l-19.26-4.6L123.7,195.55c6.33-52.69,20.21-77.68,30.74-89.37,10.66-11.84,19.74-12.57,20.74-12.62,18,16.77,38.51,26.3,54.11,31.59a247.72,247.72,0,0,0,3.9,39,92.59,92.59,0,0,1,.58,27A54.08,54.08,0,0,1,231.22,202a3.46,3.46,0,0,0,2.08,4.42,3.69,3.69,0,0,0,1.17.2,3.47,3.47,0,0,0,3.25-2.29A60.86,60.86,0,0,0,240.6,192a99.68,99.68,0,0,0-.61-29.08,239.32,239.32,0,0,1-3.76-35.6,124.3,124.3,0,0,0,17.59,4l.43,0h1.15V418.94H147.3c-5.67-31-3.81-63.9-1.38-95l.46-5.92c1.2-15.75,2.44-32,5.45-47.45l.13-.71c.18-.91.35-1.81.51-2.69a585.69,585.69,0,0,0,8.76-75.42c.8-13.85,1.3-29,1.6-47.68a3.46,3.46,0,0,0-3.4-3.5h-.06a3.46,3.46,0,0,0-3.45,3.4c-.29,18.58-.79,33.63-1.58,47.38a577.71,577.71,0,0,1-8.65,74.56c-.16.88-.33,1.76-.5,2.65l-.14.7c-3.08,15.8-4.33,32.29-5.55,48.24l-.46,5.9c-2.54,32.51-4.48,67,2,99.66h0v0c0,.06,0,.12,0,.18l7.68,28.4Zm2.77-30.42H255.4v22.87H155.12Zm222.3,25.85,7.47-27.64.21-.78a1.6,1.6,0,0,0,0-.21c6.48-32.67,4.54-67.15,2-99.66l-.46-5.9c-1.22-15.95-2.47-32.44-5.55-48.23l-.14-.71c-.17-.89-.34-1.77-.5-2.67a572.14,572.14,0,0,1-8.66-74.63c-.79-13.77-1.28-28.8-1.57-47.29a3.46,3.46,0,0,0-6.91.1c.3,18.6.8,33.72,1.59,47.58a579.92,579.92,0,0,0,8.76,75.5c.17.9.34,1.8.52,2.71l.13.72c3,15.41,4.25,31.69,5.45,47.44l.46,5.92c2.43,31.11,4.29,64-1.39,95l-.21,0H349.71a3.45,3.45,0,0,0,0,6.9h21.36l-6.19,22.87H262.3V425.84h40.25a3.45,3.45,0,0,0,0-6.9H262.3V131.31h3.45l.43,0a124.3,124.3,0,0,0,17.59-4,239.32,239.32,0,0,1-3.76,35.6A99.74,99.74,0,0,0,279.4,192a60.92,60.92,0,0,0,2.88,12.33,3.47,3.47,0,0,0,3.25,2.29,3.69,3.69,0,0,0,1.17-.2,3.46,3.46,0,0,0,2.08-4.42,54.13,54.13,0,0,1-2.55-10.93,92.65,92.65,0,0,1,.58-27,247.6,247.6,0,0,0,3.9-39c15.6-5.29,36.12-14.82,54.11-31.59,1.17.06,10.18.89,20.74,12.62,19.07,21.18,27.24,60.29,30.75,89.44l34.64,247-19,4.53a3.09,3.09,0,0,0-.79.09,3.34,3.34,0,0,0-.71.26l-36.65,8.75Zm34.54,27.21-5.68-21.81,9.46-2.26,5.74,22ZM383.54,461l9.84-2.35L399,480.37l-8.19,1.78ZM422,475.37l-5.77-22.14,10.5-2.51,3.74,22.81Z"/><path d="M334.65,289.1a3.44,3.44,0,0,0-2,4.46l32.2,82.8a3.46,3.46,0,0,0,3.22,2.2,3.41,3.41,0,0,0,1.25-.23,3.45,3.45,0,0,0,2-4.47l-32.2-82.8A3.45,3.45,0,0,0,334.65,289.1Z"/><path d="M224.63,38.22h.29l1.13-.09a3.45,3.45,0,1,0-.52-6.88l-1.17.1a3.45,3.45,0,0,0,.27,6.88Z"/><path d="M150.65,378.33a3.41,3.41,0,0,0,1.25.23,3.46,3.46,0,0,0,3.22-2.2l32.2-82.8a3.45,3.45,0,0,0-6.44-2.5l-32.2,82.8A3.45,3.45,0,0,0,150.65,378.33Z"/><path d="M326.7,418.94h-1.15a3.45,3.45,0,0,0,0,6.9h1.15a3.45,3.45,0,0,0,0-6.9Z"/></g></svg>