<?xml version="1.0" encoding="UTF-8" standalone="no"?> <svg xmlns="http://www.w3.org/2000/svg" viewBox="0 0 64 64"><g id="Layer_13" data-name="Layer 13"><path d="M60.4,33.86s0,0,0,0C60,32.15,58.1,31.4,55.5,31.25,45.15,29.93,36.67,27.17,30.3,23c-1.46-1.52-3.86-2.59-7.14-3.2-3.05.33-4.07,2.24-2.72,4.85q-1.15.95-2.46,2.22c-3.09,1.57-5.25-1-7-3C10,22.73,9.3,21.9,8.5,22a1.22,1.22,0,0,0-1,1.05c.13,1.25.22,2.86.25,4.76a16.12,16.12,0,0,0-1.42,6.72,39,39,0,0,1-2.72,4.65.48.48,0,0,0,.09.66c3.81,3.45,11,4.83,17.35,4.25,4-.48,10.17-.49,18.42,0,11-.37,18-3.06,20.81-8A4.22,4.22,0,0,0,60.4,33.86Zm-27.28-8-.24-.12Zm-10.06-5c3.07.58,5.28,1.57,6.58,3a9,9,0,0,0,.95.59c-4.09-2.13-7.25-2.26-9.37-.4C20.41,22.2,20.88,21.23,23.06,20.83ZM8.6,23c.32,0,1.09.92,1.63,1.56,1.77,2.07,4.44,5.22,8.28,3.21,1-.94,2-1.87,2.94-2.6,2.08-2.27,5.59-1.9,10.4,1.09,1.28.91,5.19,2.19,11.29,3.51a79.36,79.36,0,0,0,12.27,2.49c2,.18,3.42.5,3.89,1.56-4,3-11.18,4.8-21.25,5.44-7.2-1.87-12.76-2.78-16.55-2.74-2.76-3.18-7.1-5.94-12.9-8.19a1,1,0,0,1,.07-.15,34.12,34.12,0,0,0-.18-5.07C8.55,23,8.59,23,8.6,23Zm-.41,6.24c5.11,2,9,4.34,11.73,7-4-.69-8.2-1.37-12.59-2A17.81,17.81,0,0,1,8.19,29.22ZM39.46,43c-8.27-.44-14.5-.43-18.52,0-7,.49-12.5-.76-16.27-3.73a38.3,38.3,0,0,0,2.41-4.15c5,.75,9.75,1.54,14.2,2.3h0c3.72-.12,9.46.9,16.71,2.76,9.93-.62,17.17-2.41,21.45-5.32a5.6,5.6,0,0,1-.09.65C56.73,40.16,50,42.67,39.46,43Z"/></g></svg>