<?xml version="1.0" encoding="UTF-8" standalone="no"?> <svg xmlns="http://www.w3.org/2000/svg" viewBox="0 0 64 64"><g id="Layer_30" data-name="Layer 30"><path d="M51.57,36.07C50.92,30,49.83,22.24,48.33,13v0c-.36-1.92-2.56-3.45-6.74-4.65-1.15,0-2-.66-2.56-2.17C37.76,3.7,34.23,3,28.27,3.84c-3,.22-4.71,1.63-5.14,4.2a17.22,17.22,0,0,1-2.81,1c-2.7.45-4.23,1.21-4.67,2.32-.69.87-1.55,3.33-2.08,11.86a96.45,96.45,0,0,1-1.3,13.14,10.83,10.83,0,0,0-.5,4.39c.34.69,1.41,1.51,6.71,1.68a.51.51,0,0,0,.43-.22A5.79,5.79,0,0,0,19.46,38a12.88,12.88,0,0,0,.66-5.82,17.29,17.29,0,0,1,0-5.56,38.23,38.23,0,0,1,.72,10.1.41.41,0,0,0,0,.19c0,.41-.06.81-.11,1.21-2.17,7-2.89,11.89-2.2,14.76.52,3.94,4.37,6.44,11.43,7.44a.5.5,0,0,0,.77.11l1.3.14a.52.52,0,0,0,.39-.2c.35-.41,1.56-1,5.86-.47,2.48.2,4.39-1.63,5.7-5.43,1-1.5,1-4.49.07-9.09a22.85,22.85,0,0,0-1-4.53c-1.36-3.76-.6-8.1,0-12.25.31,3.25.74,6.37,1.3,9.31,0,2.38,0,4,1.53,4.18a23,23,0,0,0,6-1,.51.51,0,0,0,.35-.39A8.08,8.08,0,0,0,51.57,36.07ZM38.92,8a10.79,10.79,0,0,1,.64,3.14,2.12,2.12,0,0,0-1.13-1,5.48,5.48,0,0,0,0-3A4.42,4.42,0,0,0,38.92,8ZM27.2,5a8.16,8.16,0,0,1,1.18-.17c3.92-.59,6.71-.45,8.35.41a14.57,14.57,0,0,1,.6,1.8,16.75,16.75,0,0,0-11.72,0A3,3,0,0,1,27.2,5ZM24.07,8.54v0a4.69,4.69,0,0,1,.61-1.86,7.39,7.39,0,0,0-.12,2.94,3.85,3.85,0,0,1-1.06,2.16A8.82,8.82,0,0,1,24.07,8.54ZM18.22,41.41c-4.28-.17-5.27-.76-5.5-1a12.56,12.56,0,0,1,.33-3.21,22.55,22.55,0,0,0,5.46,1.16A5.3,5.3,0,0,1,18.22,41.41ZM29.91,59.26c-6.44-.95-9.94-3.16-10.4-6.62q-1-4,2.2-14.37l.12-1.3A17.26,17.26,0,0,0,24,25.13a.51.51,0,0,0-.57-.42.51.51,0,0,0-.42.57,17.34,17.34,0,0,1-1.1,9.41,39,39,0,0,0-.71-7.85,21.37,21.37,0,0,0,.31-7.37.5.5,0,0,0-1,.08,32.63,32.63,0,0,1,.1,4.63.06.06,0,0,0,0,0c-.35-1.38-.78-2.76-1.27-4.14a.5.5,0,1,0-.94.33c.47,1.32.88,2.64,1.22,4a18.73,18.73,0,0,0-.49,8,12.65,12.65,0,0,1-.5,5.1,21.34,21.34,0,0,1-5.32-1.14,97,97,0,0,0,1.26-12.94c.51-8.34,1.35-10.67,1.87-11.29l0-.05a.54.54,0,0,0,.24-.44c.34-.44,1.33-1.07,3.79-1.47h0a16.64,16.64,0,0,0,2.27-.74c-1,4.1.53,5.36,2.42,1.65a5.63,5.63,0,0,0,1.33,1.38c2.45,3.27,3.57,6.26,3.33,9C30.34,30.29,30.35,43.08,29.91,59.26Zm1.64.2-.64-.07c.44-16.26.43-29.1,0-38.12.22-2.45-.6-5.15-2.45-8l.18.06c1.34,1,2.3,3.45,2.84,7.32,0,.14,0,.28.05.42C32,32,32,44.91,31.55,59.46Zm.09-42.86a7.51,7.51,0,0,0-2.5-4.16l-.09,0a5.91,5.91,0,0,1-1.83-.84s0,0,0,0a5.2,5.2,0,0,1-1.64-2.08,8.37,8.37,0,0,1-.08-1.28,15.82,15.82,0,0,1,12.1.06,2.46,2.46,0,0,1-.49,2.2.44.44,0,0,0-.12.15l0,.1c-.09.34-.45.66-1,1A7.38,7.38,0,0,0,31.64,16.6Zm12,6.45a19,19,0,0,0,2.58-8.63.5.5,0,0,0-1-.1,17.8,17.8,0,0,1-2.49,8.3.38.38,0,0,0-.09.24c-.37,3.69-.75,7-1.13,9.69-.95,4.89.94,8.49,1.55,12.93,1.12,5.44.65,7.59.06,8.43-1.14,3.29-2.74,5.15-4.74,4.94-2.78-.36-4.67-.3-5.82.19C33,44.64,33,31.84,32.51,21l-.06-.5c-.46-3.89.8-6.49,3.86-7.94a2.83,2.83,0,0,0,1.52-1.41.44.44,0,0,1,.32,0c.16.05.58.32,1.06,1.65a.5.5,0,0,0,.86.15c.59-.74.66-2,.2-3.83a3.33,3.33,0,0,0,1.1.24c3.69,1.07,5.69,2.36,6,3.85,1.47,9.09,2.55,16.73,3.21,22.74A20.8,20.8,0,0,1,46.78,37a23,23,0,0,1-.71-6.07.5.5,0,0,0-1,0,23.68,23.68,0,0,0,.73,6.25l-.56.1A107,107,0,0,1,43.64,23.05Zm7.58,17.16a21.55,21.55,0,0,1-5.37.83c-.36-.18-.52-.65-.53-2.78l1.19-.21h0a22.65,22.65,0,0,0,4.28-1.19A6.88,6.88,0,0,1,51.22,40.21Z"/></g></svg>