<?xml version="1.0" encoding="UTF-8" standalone="no"?> <svg xmlns="http://www.w3.org/2000/svg" viewBox="0 0 520 520"><title>Jacket</title><g id="Jacket"><circle cx="340.19" cy="100.72" r="5.75"/><circle cx="309.47" cy="149.02" r="5.75"/><circle cx="207.37" cy="149.02" r="5.75"/><circle cx="180.39" cy="100.72" r="5.75"/><path d="M128.19,224.27a3.41,3.41,0,0,0,4.08-2.66c3.88-18.42,5.06-42.8,3.52-72.48-1.14-22-3.45-38.94-3.48-39.11a3.45,3.45,0,0,0-6.83,1c.09.66,9,66.59,0,109.21A3.45,3.45,0,0,0,128.19,224.27Z"/><path d="M79.59,197.88a3.76,3.76,0,0,0,1,.14,3.45,3.45,0,0,0,3.31-2.46l.33-1.11a3.45,3.45,0,1,0-6.61-2l-.33,1.11A3.46,3.46,0,0,0,79.59,197.88Z"/><path d="M460.48,269.6c-10.2-58.61-26.36-110.22-50.85-162.41a32.4,32.4,0,0,0-10.39-12.53c-22.56-16.16-49.81-28-54.44-30-28.28-29.61-42.13-30.51-44.22-30.45H219.37c-2.5,0-16.32,1.29-44.17,30.44-4.48,1.9-31.84,13.84-54.43,30a32.22,32.22,0,0,0-10.4,12.53,623.47,623.47,0,0,0-25.5,62.75A3.46,3.46,0,0,0,87,174.33a3.38,3.38,0,0,0,1.12.19,3.45,3.45,0,0,0,3.27-2.33,617.94,617.94,0,0,1,25.22-62.07,25.3,25.3,0,0,1,8.17-9.85C140,89.35,157.56,80.41,168.33,75.33c-4.21,8.8-8.88,23.55-8.43,45.21a3.42,3.42,0,0,0,1.46,2.74,3.46,3.46,0,0,0,3.07.46c.1,0,9.76-3.19,21.89-5.79l3.91,26.18-.31.35a9.59,9.59,0,0,0-2.11,8.36,9.71,9.71,0,0,0,4.69,6.43l40.92,274.07h-74.3c-5.5-24.66-10.34-47.19-14.46-67.25l18.25-72.86a3.45,3.45,0,1,0-6.69-1.68L141.47,350.4c-10.13-50.77-14.88-82.79-13.07-89.51a3.45,3.45,0,1,0-6.67-1.79c-3.89,14.49,14.84,105,31.25,178.38h0v.06c2.89,12.89,5.16,22.84,6.29,27.71l-34.87,8.84c-4-12.43-19.22-59.77-25.11-85.3a3.45,3.45,0,1,0-6.72,1.55c5.88,25.5,20.87,72.3,25.12,85.44l-9.8,2.49c-14.84-34.75-26.53-74.55-35.73-121.54-5.66-29-11-56.35-5.86-85.94,3.18-18.26,7-36.15,11.43-53.16a3.45,3.45,0,1,0-6.68-1.73c-4.46,17.19-8.34,35.26-11.55,53.7-5.36,30.85.36,60.13,5.89,88.45,9.53,48.71,21.74,89.82,37.33,125.66a3.47,3.47,0,0,0,3.17,2.08,3.61,3.61,0,0,0,.85-.11l57.49-14.57a3.46,3.46,0,0,0,2.52-4.13c0-.11-2.48-10.66-6.09-26.75H272.31a3.45,3.45,0,1,0,0-6.89h-31.9L225.1,268.88a2.91,2.91,0,0,0,0-.31c-1.33-7.23-.51-16.52,2.41-27.59,27-44.39,78.33-71.62,99.2-81.29a9.72,9.72,0,0,0,5.48-6.85,9.57,9.57,0,0,0-2.12-8.36c-9-10.45-26-22.82-34.6-28.76,15.85-4.28,47.79,4,60.09,8a3.44,3.44,0,0,0,4.52-3.2c.46-21.7-4.2-36.44-8.41-45.22,10.77,5.07,28.34,14,43.59,25a25.41,25.41,0,0,1,8.16,9.85c24.23,51.62,40.21,102.67,50.31,160.67,5.15,29.59-.2,57-5.86,85.94-9.2,47-20.89,86.81-35.74,121.54l-9.79-2.48c4.25-13.14,19.24-60,25.13-85.45a3.45,3.45,0,1,0-6.72-1.55c-5.9,25.53-21.08,72.87-25.11,85.3l-34.88-8.84c1.12-4.87,3.4-14.82,6.28-27.71v-.06h0c5.65-25.32,10.74-48.89,15.11-70.12a3.37,3.37,0,0,0,.29-1.37c19.29-94.06,16.7-103.71,15.85-106.89a3.45,3.45,0,1,0-6.66,1.79c1.05,3.94.61,20.95-13,89.31l-14.69-58.65a3.45,3.45,0,0,0-6.7,1.68l18.21,72.66c-4.22,20.47-9.1,43.14-14.52,67.45h-41.4a3.45,3.45,0,1,0,0,6.89h39.86c-3.62,16.09-6.07,26.64-6.09,26.75a3.45,3.45,0,0,0,2.51,4.13l57.5,14.57a3.54,3.54,0,0,0,.85.11,3.47,3.47,0,0,0,3.16-2.08c15.6-35.83,27.81-76.93,37.34-125.66C460.14,329.73,465.86,300.45,460.48,269.6ZM297.18,41.12c0,4-.23,11.31-.94,20.12H223.72c-.72-8.81-.9-16.1-.95-20.12Zm-1.58,27c-1.94,18.32-5.49,34-10.31,45.38-1.41,2.33-14,23.25-25.31,42.72-11.28-19.46-23.9-40.39-25.31-42.72-6-14.12-8.88-31.82-10.31-45.38ZM188.51,110.46c-9,1.77-17,4-21.72,5.34.43-29.56,11.12-43.73,12.75-45.72l.16-.14c19-20,30.78-26.11,36.18-28,.06,4.77.31,13.07,1.24,23,1.12,12.32,3.5,29.12,8.46,43.91C216.93,106.8,204.53,107.31,188.51,110.46Zm36,5.28c-6.84,4.74-19,13.54-28.22,22.2l-3.18-21.32C206.75,114.19,217.55,113.89,224.5,115.74Zm-28.31,37.69a2.9,2.9,0,0,1-1.64-2,2.74,2.74,0,0,1,.6-2.41c.4-.46.82-.93,1.27-1.42,9.55-10.39,27.11-22.81,34.09-27.58,4.39,7.31,15.75,26.27,25.49,43.17-4.7,8.19-8.21,14.52-10.65,19.17A306.37,306.37,0,0,0,197,153.83ZM221,238.65c-3.29,12.24-4.2,22.67-2.7,31L222,310.34l-22-147.4a298.58,298.58,0,0,1,42.23,25.66c-.29.63-.53,1.21-.71,1.69C239.9,193.12,227.2,215.42,221,238.65ZM324.81,149a2.74,2.74,0,0,1,.6,2.41,2.91,2.91,0,0,1-1.63,2A303.56,303.56,0,0,0,276,181.29c-16.11,11.55-29.65,23.87-40.52,36.81a242,242,0,0,1,12.14-24.59,3.88,3.88,0,0,0,.28-.58,43.44,43.44,0,0,1,1.87-4.14c2.45-4.95,7-13.24,13.6-24.66C273.26,147,285,127.43,289.45,120,296.74,125,315.62,138.33,324.81,149Zm28.35-33.18c-5.08-1.49-13.91-3.9-23.72-5.72-15-2.8-26.77-3.18-35.05-1.16,4-11.92,6.85-26.6,8.44-43.8.93-10.06,1.18-18.42,1.25-23.2,5.33,1.85,17.13,7.94,36.18,28C341.15,70.94,352.72,84.94,353.16,115.8Z"/><path d="M391.57,107.08a3.44,3.44,0,0,0-3.89,2.94c0,.17-2.33,17.08-3.48,39.11-1.54,29.68-.36,54.06,3.52,72.48a3.46,3.46,0,0,0,3.37,2.74,3.53,3.53,0,0,0,.72-.08,3.44,3.44,0,0,0,2.66-4.09c-9-42.59-.05-108.55,0-109.21A3.44,3.44,0,0,0,391.57,107.08Z"/><path d="M296.47,433.34h-1.16a3.45,3.45,0,1,0,0,6.89h1.16a3.45,3.45,0,1,0,0-6.89Z"/><path d="M355.69,166.84a3.45,3.45,0,0,0-4.85.54l-52.9,66.24a3.45,3.45,0,1,0,5.39,4.31l52.9-66.24A3.45,3.45,0,0,0,355.69,166.84Z"/></g></svg>