<?xml version="1.0" encoding="UTF-8" standalone="no"?> <svg xmlns="http://www.w3.org/2000/svg" viewBox="0 0 520 520"><title>Short_pants_men</title><g id="Short_pants_men"><path d="M268,101.59a6.9,6.9,0,1,0-6.9,6.9A6.89,6.89,0,0,0,268,101.59Z"/><path d="M162.9,89.22h1.15a3.45,3.45,0,1,0,0-6.89H162.9a3.45,3.45,0,1,0,0,6.89Z"/><path d="M417.15,301.11l.1,1.15a3.44,3.44,0,0,0,3.43,3.17H421a3.44,3.44,0,0,0,3.15-3.72l-.09-1.15a3.45,3.45,0,1,0-6.88.56Z"/><path d="M426,324.71a3.45,3.45,0,1,0-6.88.56L424.6,392,354.75,400c-8.47-47.6-24.09-152.12-24.25-153.2a3.45,3.45,0,0,0-6.83,1c.16,1.07,15.71,105.07,24.21,153l-76.79,8.86-7.66-95.91a3.45,3.45,0,0,0-6.87,0l-7.64,95.91-76.8-8.86c8.5-47.9,24-151.9,24.21-153a3.45,3.45,0,0,0-6.83-1c-.16,1.08-15.78,105.6-24.25,153.2L95.4,392l15.13-184.8c37.07-28,54.62-75,58.44-86.33h86.42V222.43a3.45,3.45,0,0,0,3.45,3.45,26.48,26.48,0,0,0,26.45-26.45V120.86H351c3.82,11.34,21.37,58.29,58.43,86.33l5.81,70.92a3.45,3.45,0,0,0,3.43,3.17H419a3.46,3.46,0,0,0,3.16-3.72L406.42,85.49A3.43,3.43,0,0,0,403,82.33H187.06a3.45,3.45,0,1,0,0,6.89h8.1V114h-77l2-24.74H139.9a3.45,3.45,0,1,0,0-6.89H117a3.43,3.43,0,0,0-3.43,3.16l-27,330.05a3.45,3.45,0,0,0,3,3.71l73.48,8.43h.09l86.85,10a3.43,3.43,0,0,0,3.83-3.15l1.62-20.41a2.89,2.89,0,0,0,0-.29L260,357.47l4.5,56.42v.05l1.65,20.56a3.43,3.43,0,0,0,3.43,3.17,2.61,2.61,0,0,0,.4,0l86.9-10h0l73.49-8.43a3.45,3.45,0,0,0,3.05-3.71ZM278.39,199.43a19.59,19.59,0,0,1-16.1,19.25V120.86h16.1Zm80-78.57h44l6.29,76.87C378.86,172.46,363.06,133.86,358.36,120.86Zm43.47-6.9h-77V89.22h75ZM202.06,89.22H317.94V114H202.06Zm-40.42,31.64c-4.7,13-20.51,51.6-50.33,76.87l6.29-76.87Zm-66.8,278,69.17,8c-1.44,7.75-2.3,11.69-2.8,13.67L93.7,412.78Zm73.28,22.44c.14-.57.27-1.19.42-1.83.63-2.85,1.42-6.84,2.35-11.84l77.47,8.93-1.1,13.82Zm103.52-4.74,77.46-8.93c1.15,6.29,2,10.67,2.71,13.68l-79.07,9.07Zm87.14,3.95c-.5-2-1.36-5.92-2.8-13.67l69.18-8,1.14,13.91Z"/></g></svg>